<svg xmlns:xlink="http://www.w3.org/1999/xlink" xmlns="http://www.w3.org/2000/svg" viewBox="0 0 266.7 133" xml:space="preserve" width="266.7"  height="133" ><path fill="none" d="m146.3 122.1-14.2-10.6a2.4 2.4 0 0 0-3.4.5l-8.6 11.5 12.8 9.5h8.3l5.6-7.5c.8-1 .6-2.6-.5-3.4zm-39-4c-.6.8-.4 1.8.3 2.4l2 1.5c1.2-.5 2.6-.4 3.7.5 1.1.8 1.6 2.1 1.5 3.4l9.6 7.2h6.7l-22.5-16.8-1.3 1.8zm10.5-3.7 3.5-4-1.4-1.1a4.7 4.7 0 0 0-6.7 1l-.3.4 4.9 3.7z"/><path fill="none" d="M108.9 123.8c-.9 1.3-.7 3 .5 3.9 1.2.9 3 .7 3.9-.6.3-.3.4-.7.5-1.1.2-1-.2-2.1-1.1-2.7-.9-.7-2-.7-2.9-.3l-.9.8zM266.7 0h-.9l.9.7zM126 113.9l-3.9-2.9-3.8 4.4c-.2.2-.5.2-.7.1l-5.3-4-2.9 3.9 10 7.5 6.6-9zM189.8 1.5c1 0 1.9-.6 2.3-1.5h-4.6c.4.9 1.3 1.5 2.3 1.5zM75.1 130.4l-3.6 2.7h6.7l-1.9-2.5c-.3-.4-.8-.5-1.2-.2z"/><path fill="none" d="m67.1 114.4-19.2 14.4c-1.3 1-1.8 2.8-1.1 4.2h6.5a3.5 3.5 0 0 1 3.5-3.4c1.9 0 3.4 1.5 3.5 3.4h9.6l4.6-3.5c.8-.6 2-.5 2.6.4l2.3 3.1h6.1l-13.4-17.9a3.6 3.6 0 0 0-5-.7zm4.5 8.3-4.2 3.2c-.2.2-.5.1-.7-.1s-.1-.5.1-.7l4.2-3.2c.2-.2.5-.1.7.1.1.3.1.6-.1.7zM23.8 20.1c-.9 0-1.5.7-1.5 1.5 0 .9.7 1.5 1.5 1.5.9 0 1.5-.7 1.5-1.5s-.7-1.5-1.5-1.5zM44.3 32.7l-5.9 9.7 5.2.3 6.3-9.7zM35.4 98.4c-4 0-7.3 3.3-7.3 7.3s3.3 7.3 7.3 7.3 7.3-3.3 7.3-7.3-3.3-7.3-7.3-7.3zm3.2 4.9-3.5 5.2-.4.2-.4-.2-1.8-2.4c-.2-.2-.1-.5.1-.7s.5-.1.7.1l1.4 1.8 3.1-4.6c.2-.2.5-.3.7-.1.2.1.2.4.1.7zm-1.3-60.9 5.9-9.7-4.8-.3-6.3 9.7 5.2.3zm-24 79.7L0 112.2V133h8.2l5.6-7.5c.8-1 .6-2.6-.5-3.4zm176.5 8.6c-1.3 0-2.4 1-2.5 2.4h4.9c0-1.4-1.1-2.4-2.4-2.4zm18.3-.3-3.6 2.7h6.6l-1.9-2.5c-.2-.4-.7-.5-1.1-.2z"/><circle fill="none" cx="11.8" cy="91.4" r="2"/><path fill="none" d="M200.2 114.4 181 128.8c-1.3 1-1.8 2.8-1.1 4.2h6.5a3.5 3.5 0 0 1 3.5-3.4c1.9 0 3.4 1.5 3.5 3.4h9.6l4.6-3.5c.8-.6 2-.5 2.6.4l2.3 3.1h6.1l-13.4-17.9a3.7 3.7 0 0 0-5-.7zm4.4 8.3-4.2 3.2c-.2.2-.5.1-.7-.1-.2-.2-.1-.5.1-.7l4.2-3.2c.2-.2.5-.1.7.1.1.3.1.6-.1.7zm43-94.5a2 2 0 0 0 2-2 2 2 0 0 0-2-2 2 2 0 0 0-2 2c0 1.1.9 2 2 2zM5.1 67.2 0 55.1v16.8l3.8-1.6a2.4 2.4 0 0 0 1.3-3.1zM60.9 7.9l4.5 6c.3.4.8.5 1.2.2l14-10.5c.4-.3.5-.8.2-1.2L79 0h-8.9l-9 6.7c-.4.3-.4.8-.2 1.2zm65.8-1.6c0 1.5 1.2 2.8 2.8 2.8s2.8-1.2 2.8-2.8c0-1.5-1.2-2.8-2.8-2.8s-2.8 1.2-2.8 2.8zm133 0c0 1.5 1.2 2.8 2.8 2.8s2.8-1.2 2.8-2.8c0-1.5-1.2-2.8-2.8-2.8s-2.8 1.2-2.8 2.8zM56.8 1.5c1 0 1.9-.6 2.3-1.5h-4.6c.4.9 1.3 1.5 2.3 1.5z"/><path fill="none" d="M262.5 2.5c2.1 0 3.8 1.7 3.8 3.8v.4l.5.3V2l-2.7-2h-6.7l3.7 2.8c.4-.2.9-.3 1.4-.3zm-22.2 115.6c-.6.8-.4 1.8.3 2.4l2 1.5c1.2-.5 2.6-.4 3.7.5 1.1.8 1.6 2.1 1.5 3.4l9.6 7.2h6.7l-22.5-16.8-1.3 1.8zm-37.1-93.8L222.4 10a3.5 3.5 0 0 0 .7-5l-3.7-5h-6.1l1.4 1.9c.6.8.5 2-.4 2.6l-14 10.5c-.8.6-2 .5-2.6-.4l-4.5-6c-.6-.8-.5-2 .4-2.6l7.9-5.9h-8.3a3.3 3.3 0 0 1-3.3 2.5 3.4 3.4 0 0 1-3.3-2.5h-6l17.7 23.6c1 1.5 3.3 1.8 4.9.6zm10.3-14.7 4.2-3.2c.2-.2.5-.1.7.1.2.2.1.5-.1.7l-4.2 3.2c-.2.2-.5.1-.7-.1-.1-.2-.1-.6.1-.7zm-84-7.1c2.1 0 3.8 1.7 3.8 3.8v.4l2.2 1.7c.6.5 1.5.3 2-.3l.7-.9c.5-.6.3-1.5-.3-2l-6.8-5h-6.7l3.7 2.8c.4-.4.9-.5 1.4-.5zm133.2 51-12.4 5.2a2.4 2.4 0 0 0-1.3 3.1l5.2 12.4a2.4 2.4 0 0 0 3.1 1.3l9.3-3.9v-15l-.8-1.9a2.3 2.3 0 0 0-3.1-1.2zm-2.2 4.7-5.3 2.2c-.3.1-.5 0-.7-.3-.1-.3 0-.5.3-.7l5.3-2.2c.3-.1.5 0 .7.3s0 .6-.3.7zM141.3 0h-8.5l5.4 4.1z"/><path fill="none" d="m193.9 7.9 4.5 6c.3.4.8.5 1.2.2l14-10.5c.4-.3.5-.8.2-1.2L212 0h-8.9l-9 6.7c-.4.3-.4.9-.2 1.2zM261.7 112l-1.6 2.1-7 9.3 12.8 9.5h.8v-20.4l-1.5-1.1c-1.2-.7-2.7-.5-3.5.6zm-19.8 11.8c-.9 1.3-.7 3 .5 3.9 1.2.9 3 .7 3.9-.6.3-.3.4-.7.5-1.1.2-1-.2-2.1-1.1-2.7-.9-.7-2-.7-2.9-.3l-.9.8zM43.6 43.7l-4.8-.3 1.8 3.5c.1.2 0 .5-.2.7-.2.1-.5 0-.7-.2l-2-4-5.4-.3 5.1 10.1 11.4.6-5.2-10.1zM8.5 72.3c.6 1.1 1.9 1.7 3.1 1.1a2.4 2.4 0 0 0 1.3-3.1v-.1a2.4 2.4 0 0 0-3.1-1.3h-.1a2.5 2.5 0 0 0-1.3 3.2l.1.2zm61.7-48L89.4 10a3.5 3.5 0 0 0 .7-5l-3.7-5h-6.1l1.4 1.9c.6.8.5 2-.4 2.6L67.3 15c-.8.6-2 .5-2.6-.4l-4.5-6c-.6-.8-.5-2 .4-2.6l7.8-6h-8.3a3.3 3.3 0 0 1-3.3 2.5A3.4 3.4 0 0 1 53.5 0h-6l17.7 23.6a3.5 3.5 0 0 0 5 .7zM80.5 9.6l4.2-3.2c.2-.2.5-.1.7.1.2.2.1.5-.1.7l-4.2 3.2c-.2.2-.5.1-.7-.1-.1-.2-.1-.6.1-.7zM259 113.9l-3.9-2.9-3.8 4.4c-.2.2-.5.2-.7.1l-5.3-4-2.9 3.9 10 7.5 6.6-9zM4.5 8l.7-.9c.5-.6.3-1.5-.3-2L0 1.4v5l2.4 1.8c.7.6 1.6.4 2.1-.2z"/><path fill="none" d="m250.8 114.4 3.5-4-1.4-1.1a4.7 4.7 0 0 0-6.7 1l-.3.4 4.9 3.7zM8.3 0H0v.2l5.2 3.9zM56.8 130.7c-1.3 0-2.4 1-2.5 2.4h4.9c0-1.4-1-2.4-2.4-2.4zm180.6-72.9c0-.9-.7-1.5-1.5-1.5-.9 0-1.5.7-1.5 1.5 0 .9.7 1.5 1.5 1.5.8.1 1.5-.6 1.5-1.5zM213.8 80.9l6.2 12.2 7.5-11.6-6.2-12.2zM124.3 75.5l12.4-5.2a2.4 2.4 0 0 0 1.3-3.1l-5.2-12.4a2.4 2.4 0 0 0-3.1-1.3l-12.4 5.2a2.4 2.4 0 0 0-1.3 3.1l5.2 12.4a2.3 2.3 0 0 0 3.1 1.3zm-2.5-16 5.3-2.2c.3-.1.5 0 .7.3s0 .5-.3.7l-5.3 2.2c-.3.1-.5 0-.7-.3-.1-.3.1-.6.3-.7zM44.4 43.3l5.2 10 6.2-9.5-5.1-10.1zM141.5 72.3c.6 1.1 1.9 1.7 3.1 1.1a2.4 2.4 0 0 0 1.3-3.1v-.1a2.4 2.4 0 0 0-3.1-1.3h-.1a2.5 2.5 0 0 0-1.3 3.2l.1.2zm-26.9-48a2 2 0 0 0-2 2c0 1.1.9 2 2 2s2-.9 2-2a2 2 0 0 0-2-2zm122.9 69c-.9 0-1.5.7-1.5 1.5 0 .9.7 1.5 1.5 1.5.9 0 1.5-.7 1.5-1.5.1-.8-.6-1.5-1.5-1.5zm-24.6-12-6-.3 2.2 4.3c.1.2 0 .5-.2.7-.2.1-.5 0-.7-.2l-2.4-4.8-6.7-.4 6.2 12.2 13.9.7-6.3-12.2zm-28.2-30.9-3.5-.6c-.2 0-.4.1-.4.3l-.6 3.2 4.2.8.6-3.2c0-.3-.1-.5-.3-.5zm-28-30.3c-.9 0-1.5.7-1.5 1.5 0 .9.7 1.5 1.5 1.5s1.5-.7 1.5-1.5c.1-.8-.6-1.5-1.5-1.5z"/><path fill="none" d="M179.8 49.9c.1-.7.8-1.2 1.6-1.1l3.5.6c.7.1 1.2.8 1.1 1.6l-.6 3.2 5.5 1 1.6-9.2c.1-.3-.1-.7-.6-1.1l-5.9-4.4c-.7-.5-1.8-.7-2.7-.5l-7.1 2.1c-.6.2-.9.5-.9.8l-1.6 9.2 5.5 1 .6-3.2zm-35 39.5a2 2 0 0 0-2 2c0 1.1.9 2 2 2a2 2 0 0 0 2-2 2 2 0 0 0-2-2zm60.6-9.5 7.1-11.8-5.9-.3-7.7 11.8 6.5.3zM102.9 56.3c-.9 0-1.5.7-1.5 1.5 0 .9.7 1.5 1.5 1.5.9 0 1.5-.7 1.5-1.5s-.7-1.5-1.5-1.5zM213.6 68.2 206.5 80l6.4.3 7.7-11.7zM94.5 90.5c-.9 0-1.5.7-1.5 1.5 0 .9.7 1.5 1.5 1.5.9 0 1.5-.7 1.5-1.5.1-.8-.6-1.5-1.5-1.5zM75 74.6l-3.1 1.8c-.2.1-.2.3-.1.5l1.6 2.8 3.7-2.1-1.6-2.8c-.1-.2-.3-.3-.5-.2zm93.3 23.8c-4 0-7.3 3.3-7.3 7.3s3.3 7.3 7.3 7.3 7.3-3.3 7.3-7.3c.1-4-3.2-7.3-7.3-7.3zm3.3 4.9-3.5 5.2-.4.2-.4-.2-1.8-2.4c-.2-.2-.1-.5.1-.7.2-.2.5-.1.7.1l1.3 1.8 3.1-4.6c.2-.2.5-.3.7-.1.3.1.3.4.2.7z"/><path fill="none" d="M70.9 77.4c-.4-.7-.2-1.5.5-1.9l3.1-1.8c.7-.4 1.5-.2 1.9.5L78 77l4.8-2.8-4.7-8.1c-.2-.3-.5-.5-1.1-.4l-7.4.4c-.9.1-1.9.6-2.4 1.4l-4.1 6.2c-.3.5-.3 1-.2 1.2l4.7 8.1 4.8-2.8-1.5-2.8z"/><path fill="none" d="m247.6 126.9-.5.8a3.8 3.8 0 0 1-5.3.8 3.7 3.7 0 0 1-.8-5.2v-.1l.7-.7-1.7-1.3a2.7 2.7 0 0 1-.5-3.8l1.7-2.3 3.5-4.7.5-.7a5.8 5.8 0 0 1 8.1-1.2l6.1 4.6 1.3-1.7a3.5 3.5 0 0 1 4.8-.7l.9.7V76.2l-12 5c-.3.1-.5 0-.7-.3-.1-.3 0-.5.3-.7l12.3-5.2v-2.4l-8.9 3.7c-1.7.7-3.7-.1-4.4-1.8l-5.2-12.4c-.7-1.7.1-3.7 1.8-4.4l12.4-5.2c1.6-.7 3.5 0 4.3 1.6V8.2l-.3-.5a3.8 3.8 0 0 1-3.5 2.4 3.8 3.8 0 0 1-3.8-3.8c0-1.2.6-2.3 1.4-2.9L255.7 0h-35.1l3.3 4.4c1.5 2 1.1 4.9-.9 6.4l-19.2 14.4a4.6 4.6 0 0 1-6.4-.9L179.5.3l-.2-.3h-36.7L139 4.8c.6.8.6 2 0 2.9l-.7.9a2.4 2.4 0 0 1-3.4.5L133 7.7a3.8 3.8 0 0 1-3.5 2.4 3.8 3.8 0 0 1-3.8-3.8c0-1.2.6-2.3 1.4-2.9L122.7 0H87.6l3.3 4.4c1.5 2 1.1 4.9-.9 6.4L70.8 25.1a4.6 4.6 0 0 1-6.4-.9L46.5.2l-.2-.3H9.5L6 4.8c.6.8.6 2 0 2.9l-.7.9a2.5 2.5 0 0 1-3.5.5L0 7.7v45.5l.8 1.1L6 66.8c.7 1.7-.1 3.7-1.8 4.4L0 73v2.4l7.5-3.1c-.5-1.5.1-3.2 1.5-4l-7.1-17a6.5 6.5 0 0 1 0-5.1L4 40.9c.1-.3.4-.4.7-.3.2.1.3.4.2.7l-2.1 5.2c-.6 1.4-.6 3 0 4.4L9.9 68c1.6-.4 3.2.4 3.9 1.9v.1c.7 1.7-.1 3.8-1.8 4.5-1.6.7-3.2.1-4.1-1.2L0 76.4v34.5l13.9 10.4a3.5 3.5 0 0 1 .7 4.8L9.5 133h36.3c-.6-1.8 0-3.8 1.6-5l19.2-14.4c2-1.5 4.9-1.1 6.4.9L86.8 133h36l-8.2-6.1-.5.8a3.8 3.8 0 0 1-5.3.8 3.7 3.7 0 0 1-.8-5.2v-.1l.7-.7-1.7-1.3a2.7 2.7 0 0 1-.5-3.8l1.7-2.3 3.5-4.7v-.1l.5-.7a5.8 5.8 0 0 1 8.1-1.2l6.1 4.6 1.3-1.7a3.5 3.5 0 0 1 4.8-.7l14.2 10.6a3.5 3.5 0 0 1 .7 4.8l-5.2 6.9h36.3c-.6-1.8 0-3.8 1.6-5l19.2-14.4c2-1.5 4.9-1.1 6.4.9l13.8 18.5h36l-7.9-6zm0-103.6a3 3 0 0 1 3 3 3 3 0 0 1-3 3 3 3 0 0 1-3-3 3 3 0 0 1 3-3zm-235.8 71a3 3 0 0 1-3-3 3 3 0 0 1 3-3 3 3 0 0 1 3 3 3 3 0 0 1-3 3zm12-70.1c-1.4 0-2.5-1.1-2.5-2.5s1.1-2.5 2.5-2.5 2.5 1.1 2.5 2.5-1.1 2.5-2.5 2.5zM35.4 114a8.3 8.3 0 1 1 0-16.6 8.3 8.3 0 1 1 0 16.6zm1.8-33.6c0-1.4 1.1-2.5 2.5-2.5s2.5 1.1 2.5 2.5c0 .3-.2.5-.5.5s-.5-.2-.5-.5c0-.9-.7-1.5-1.5-1.5-.9 0-1.5.7-1.5 1.5 0 .3-.2.5-.5.5-.2 0-.5-.2-.5-.5zm19.6-36.3-6.9 10.5-.2.2h-.2l-12.6-.7c-.2 0-.3-.1-.4-.3l-5.7-11.2v-.5l6.9-10.5.4-.2 12.6.7c.2 0 .3.1.4.3l5.7 11.2v.5zm29.7 29.2-2.8 1.6-5.6 3.3-4.6 2.6-5.7 3.3-2.8 1.6c-.2.1-.5.1-.7-.2a.5.5 0 0 1 .2-.7l2.3-1.4-4.7-8.1c-.4-.7-.2-1.6.2-2.3l4.1-6.2c.7-1 1.9-1.7 3.1-1.8l7.4-.4c.9 0 1.7.2 2.1.9l4.7 8.1 2.3-1.4c.2-.1.5-.1.7.2.2.4.1.7-.2.9zM90 43.2c-.2.2-.5.2-.7 0a.5.5 0 0 1 0-.7 3 3 0 0 0 .2-4.4 3 3 0 0 0-4.4-.2c-.2.2-.5.2-.7 0a.5.5 0 0 1 0-.7 4.1 4.1 0 0 1 5.8.3 3.9 3.9 0 0 1-.2 5.7zm4.5 51.4a2.5 2.5 0 0 1-2.5-2.5c0-1.4 1.1-2.5 2.5-2.5s2.5 1.1 2.5 2.5c.1 1.3-1.1 2.5-2.5 2.5zm8.4-34.2a2.5 2.5 0 0 1-2.5-2.5c0-1.4 1.1-2.5 2.5-2.5s2.5 1.1 2.5 2.5-1.1 2.5-2.5 2.5zm8.7-34.2a3 3 0 0 1 3-3 3 3 0 0 1 3 3 3 3 0 0 1-3 3 3 3 0 0 1-3-3zm8.7 48.4-5.2-12.4c-.7-1.7.1-3.7 1.8-4.4l12.4-5.2c1.7-.7 3.7.1 4.4 1.8l5.2 12.4c.7 1.7-.1 3.7-1.8 4.4l-12.4 5.2c-1.7.8-3.7 0-4.4-1.8zm1.4 6.6c-.3.1-.5 0-.7-.3-.1-.3 0-.5.3-.7l19.1-8c-.5-1.5.1-3.2 1.5-4l-7.1-17a6.5 6.5 0 0 1 0-5.1l2.1-5.2c.1-.3.4-.4.7-.3.3.1.4.4.3.7l-2.1 5.2c-.6 1.4-.6 3 0 4.4l7.1 17.1c1.6-.4 3.2.4 3.9 1.9v.1c.7 1.7-.1 3.8-1.8 4.5-1.6.7-3.2.1-4.1-1.2l-19.2 7.9zm23.1 13.1a3 3 0 0 1-3-3 3 3 0 0 1 3-3 3 3 0 0 1 3 3 3 3 0 0 1-3 3zm11.9-70.1c-1.4 0-2.5-1.1-2.5-2.5s1.1-2.5 2.5-2.5 2.5 1.1 2.5 2.5-1 2.5-2.5 2.5zm11.6 89.8a8.3 8.3 0 1 1 0-16.6c4.6 0 8.3 3.7 8.3 8.3a8.2 8.2 0 0 1-8.3 8.3zm1.9-33.6c0-1.4 1.1-2.5 2.5-2.5s2.5 1.1 2.5 2.5c0 .3-.2.5-.5.5s-.5-.2-.5-.5c0-.9-.7-1.5-1.5-1.5-.9 0-1.5.7-1.5 1.5 0 .3-.2.5-.5.5s-.5-.2-.5-.5zm24.2-23.6-24.5-4.4c-.3 0-.5-.3-.4-.6 0-.3.3-.5.6-.4l2.7.5 1.6-9.2c.1-.8.8-1.3 1.6-1.6l7.1-2.1c1.2-.3 2.6-.1 3.6.6l5.9 4.4c.7.5 1.1 1.3 1 2l-1.6 9.2 2.7.5c.3 0 .5.3.4.6-.2.4-.5.5-.7.5zm23.1-19.7a4.1 4.1 0 0 1 5.5 6.1c-.2.2-.5.2-.7 0a.5.5 0 0 1 0-.7 3 3 0 0 0 .2-4.4 3 3 0 0 0-4.4-.2c-.2.2-.5.2-.7 0-.2-.3-.1-.6.1-.8zm11 44.7-8.2 12.6-.2.2h-.2l-15-.8c-.2 0-.3-.1-.4-.3l-6.8-13.4v-.5l8.2-12.6.4-.2 15 .8c.2 0 .3.1.4.3l6.8 13.4v.5zm4.8-24c0-1.4 1.1-2.5 2.5-2.5s2.5 1.1 2.5 2.5-1.1 2.5-2.5 2.5c-1.3.1-2.5-1-2.5-2.5zm1.7 37.1c0-1.4 1.1-2.5 2.5-2.5s2.5 1.1 2.5 2.5-1.1 2.5-2.5 2.5a2.5 2.5 0 0 1-2.5-2.5z"/><path fill="#EEF" d="M84.5 37.1c-.2.2-.2.5 0 .7.2.2.5.2.7 0a3 3 0 0 1 4.4.2 3 3 0 0 1-.2 4.4c-.2.2-.2.5 0 .7.2.2.5.2.7 0a4.1 4.1 0 0 0 .3-5.8c-1.7-1.6-4.3-1.7-5.9-.2zm18.4 18.2a2.5 2.5 0 0 0-2.5 2.5c0 1.4 1.1 2.5 2.5 2.5s2.5-1.1 2.5-2.5-1.1-2.5-2.5-2.5zm0 4.1c-.9 0-1.5-.7-1.5-1.5 0-.9.7-1.5 1.5-1.5.9 0 1.5.7 1.5 1.5s-.7 1.5-1.5 1.5zM23.8 19.1c-1.4 0-2.5 1.1-2.5 2.5s1.1 2.5 2.5 2.5 2.5-1.1 2.5-2.5-1.1-2.5-2.5-2.5zm0 4.1c-.9 0-1.5-.7-1.5-1.5 0-.9.7-1.5 1.5-1.5.9 0 1.5.7 1.5 1.5s-.7 1.5-1.5 1.5zm14.4 57.2c0-.9.7-1.5 1.5-1.5.9 0 1.5.7 1.5 1.5 0 .3.2.5.5.5s.5-.2.5-.5c0-1.4-1.1-2.5-2.5-2.5a2.5 2.5 0 0 0-2.5 2.5c0 .3.2.5.5.5s.5-.2.5-.5zm56.3 9.1A2.5 2.5 0 0 0 92 92c0 1.4 1.1 2.5 2.5 2.5S97 93.4 97 92c.1-1.4-1.1-2.5-2.5-2.5zm0 4.1c-.9 0-1.5-.7-1.5-1.5 0-.9.7-1.5 1.5-1.5.9 0 1.5.7 1.5 1.5.1.8-.6 1.5-1.5 1.5zm-82.7-5.2a3 3 0 0 0-3 3 3 3 0 0 0 3 3 3 3 0 0 0 3-3 3 3 0 0 0-3-3zm0 4.9a2 2 0 0 1-2-2c0-1.1.9-2 2-2a2 2 0 0 1 2 2 2 2 0 0 1-2 2zm105.8-67.1a3 3 0 0 0-3-3 3 3 0 0 0-3 3 3 3 0 0 0 3 3 3 3 0 0 0 3-3zm-3 2a2 2 0 0 1-2-2c0-1.1.9-2 2-2s2 .9 2 2a2 2 0 0 1-2 2zM86 72.4l-2.3 1.4-4.7-8.2c-.4-.7-1.2-1-2.1-.9l-7.4.4c-1.2.1-2.5.8-3.1 1.8l-4.1 6.2c-.5.7-.6 1.6-.2 2.3l4.7 8.1-2.3 1.4c-.2.1-.3.4-.2.7.1.2.4.3.7.2l2.8-1.6 5.7-3.3 4.6-2.6 5.6-3.3 2.8-1.6c.2-.1.3-.4.2-.7-.1-.4-.4-.5-.7-.3zm-12.6 7.3-1.6-2.8c-.1-.2 0-.4.1-.5l3.1-1.8c.2-.1.4 0 .5.1l1.6 2.8-3.7 2.2zM63 74.9c-.1-.3-.2-.7.2-1.2l4.1-6.2c.5-.7 1.5-1.3 2.4-1.4l7.4-.4c.6 0 1 .2 1.1.4l4.7 8.1L78 77l-1.6-2.8c-.4-.7-1.2-.9-1.9-.5l-3.1 1.8c-.7.4-.9 1.2-.5 1.9l1.6 2.8-4.8 2.8-4.7-8.1zm83.9 46.4-14.2-10.6a3.5 3.5 0 0 0-4.8.7l-1.3 1.7-6.1-4.6a5.8 5.8 0 0 0-8.1 1.2l-.5.7v.1l-3.5 4.7-1.7 2.3c-.9 1.2-.6 2.9.5 3.8l1.7 1.3-.7.7v.1c-1.2 1.7-.9 4 .8 5.2 1.7 1.3 4 .9 5.3-.8l.5-.8 8.2 6.1h1.7l-9.6-7.2c.1-1.3-.4-2.6-1.5-3.4a4 4 0 0 0-3.7-.5l-2-1.5c-.8-.6-.9-1.6-.3-2.4l1.4-1.9 22.5 16.8h1.7l-12.8-9.5L129 112a2.4 2.4 0 0 1 3.4-.5l14.2 10.6c1.1.8 1.3 2.3.5 3.4l-5.6 7.5h1.2l5.2-6.9c.9-1.5.6-3.6-1-4.8zm-34.1 1.9c.9.7 1.3 1.7 1.1 2.7-.1.4-.2.8-.5 1.1a2.8 2.8 0 0 1-3.9.6 2.8 2.8 0 0 1-.6-3.9l.9-.8c1-.4 2.1-.3 3 .3zm7.1-13.8 1.4 1.1-3.5 4-4.9-3.7.3-.4a4.7 4.7 0 0 1 6.7-1zm-7.6 2.1 5.3 4c.2.2.5.1.7-.1l3.8-4.4 3.9 2.9-6.7 8.9-10-7.5 3-3.8zM5.3 8.6l.7-.9c.7-.9.6-2 0-2.9L9.5 0H8.3L5.2 4.1 0 .2v1.3l4.9 3.6c.6.5.8 1.4.3 2l-.7.9c-.5.6-1.4.8-2.1.3L0 6.5v1.2l1.8 1.4c1.1.8 2.6.6 3.5-.5zm8.6 112.7L0 110.9v1.2l13.3 10c1.1.8 1.3 2.3.5 3.4L8.2 133h1.2l5.2-6.9c1.2-1.5.9-3.6-.7-4.8zm37.2-89c-.1-.2-.2-.3-.4-.3l-12.6-.7-.4.2L30.8 42v.5l5.7 11.2c.1.2.2.3.4.3l12.6.7h.2l.2-.2L56.8 44v-.5l-5.7-11.2zm-7.5 10.4-5.2-.3 5.9-9.7 5.6.3-6.3 9.7zm-5.2-10.3 4.8.3-5.9 9.7-5.2-.3 6.3-9.7zm-6.3 10.7 5.4.3 2 4c.1.2.4.3.7.2.2-.1.3-.4.2-.7l-1.8-3.5 4.8.3 5.1 10.1-11.4-.6-5-10.1zm17.5 10.2-5.1-10.1 6.2-9.6 5.1 10.1-6.2 9.6zm16.9 60.3L47.3 128c-1.6 1.2-2.2 3.2-1.6 5h1.1a3.6 3.6 0 0 1 1.1-4.2l19.2-14.4a3.5 3.5 0 0 1 5 .7L85.5 133h1.2l-13.8-18.5a4.6 4.6 0 0 0-6.4-.9z"/><path fill="#EEF" d="M56.8 129.7a3.5 3.5 0 0 0-3.5 3.4h1a2.5 2.5 0 0 1 2.5-2.4c1.3 0 2.4 1 2.5 2.4h1a3.5 3.5 0 0 0-3.5-3.4zm14.2-7.8-4.2 3.2c-.2.2-.3.5-.1.7s.5.3.7.1l4.2-3.2c.2-.2.3-.5.1-.7a.6.6 0 0 0-.7-.1zm3.5 7.7-4.6 3.5h1.7l3.6-2.7c.4-.3.9-.2 1.2.2l1.9 2.5h1.2l-2.3-3.1c-.7-.9-1.9-1.1-2.7-.4zM64.4 24.2c1.5 2 4.4 2.4 6.4.9L90 10.8c2-1.5 2.4-4.4.9-6.4L87.6 0h-1.2l3.7 5c1.2 1.6.9 3.8-.7 5L70.2 24.3a3.5 3.5 0 0 1-5-.7L47.5 0h-1.2l.2.3 17.9 23.9z"/><path fill="#EEF" d="M56.8 2.5c1.6 0 2.9-1.1 3.3-2.5h-1c-.4.9-1.3 1.5-2.3 1.5-1 0-1.9-.6-2.3-1.5h-1a3.3 3.3 0 0 0 3.3 2.5zm24.3 7.9 4.2-3.2c.2-.2.3-.5.1-.7-.2-.2-.5-.3-.7-.1l-4.2 3.2c-.2.2-.3.5-.1.7.2.2.5.3.7.1zm-21-1.9 4.5 6c.6.8 1.8 1 2.6.4l14-10.5c.8-.6 1-1.8.4-2.6L80.2 0H79l1.8 2.5c.3.4.2.9-.2 1.2l-14 10.5c-.4.3-.9.2-1.2-.2l-4.5-6c-.3-.4-.2-.9.2-1.2l9-6.7h-1.7L60.5 6c-.8.5-1 1.7-.4 2.5zM6 66.8.8 54.4 0 53.3v1.9l5.1 12.1c.5 1.2-.1 2.6-1.3 3.1L0 71.9V73l4.2-1.7A3.5 3.5 0 0 0 6 66.8z"/><path fill="#EEF" d="M12 74.4a3.3 3.3 0 0 0 1.8-4.5v-.1a3.4 3.4 0 0 0-3.9-1.9L2.8 50.8c-.6-1.4-.6-3 0-4.4l2.1-5.2c.1-.3 0-.5-.3-.7-.3-.1-.5 0-.7.3L1.8 46a6.5 6.5 0 0 0 0 5.1l7.1 17a3.3 3.3 0 0 0-1.5 4L0 75.4v1.1l7.9-3.3c.9 1.2 2.5 1.8 4.1 1.2zm-2.2-5.5c1.3-.5 2.7.1 3.2 1.3v.1c.5 1.2-.1 2.6-1.3 3.1s-2.5 0-3.1-1.1l-.1-.2c-.6-1.2 0-2.6 1.3-3.2zm25.6 28.5a8.3 8.3 0 1 0 0 16.6 8.3 8.3 0 1 0 0-16.6zm0 15.6c-4 0-7.3-3.3-7.3-7.3s3.3-7.3 7.3-7.3 7.3 3.3 7.3 7.3-3.3 7.3-7.3 7.3z"/><path fill="#EEF" d="m37.7 102.7-3.1 4.6-1.4-1.8c-.2-.2-.5-.3-.7-.1s-.3.5-.1.7l1.8 2.4.4.2.4-.2 3.5-5.2c.2-.2.1-.5-.1-.7-.2-.2-.5-.1-.7.1zm180.4-64.8a3 3 0 0 1 4.4.2 3 3 0 0 1-.2 4.4c-.2.2-.2.5 0 .7.2.2.5.2.7 0a4.1 4.1 0 0 0-5.5-6.1c-.2.2-.2.5 0 .7.1.2.4.3.6.1zm20.3 19.9c0-1.4-1.1-2.5-2.5-2.5a2.5 2.5 0 0 0-2.5 2.5c0 1.4 1.1 2.5 2.5 2.5 1.4.1 2.5-1 2.5-2.5zm-4.1 0c0-.9.7-1.5 1.5-1.5.9 0 1.5.7 1.5 1.5 0 .9-.7 1.5-1.5 1.5-.8.1-1.5-.6-1.5-1.5zm-77.6-38.7c-1.4 0-2.5 1.1-2.5 2.5s1.1 2.5 2.5 2.5 2.5-1.1 2.5-2.5-1-2.5-2.5-2.5zm0 4.1c-.9 0-1.5-.7-1.5-1.5 0-.9.7-1.5 1.5-1.5s1.5.7 1.5 1.5c.1.8-.6 1.5-1.5 1.5zm14.5 57.2c0-.9.7-1.5 1.5-1.5.9 0 1.5.7 1.5 1.5 0 .3.2.5.5.5s.5-.2.5-.5c0-1.4-1.1-2.5-2.5-2.5a2.5 2.5 0 0 0-2.5 2.5c0 .3.2.5.5.5s.5-.2.5-.5zm68.9 14.5c0-1.4-1.1-2.5-2.5-2.5a2.5 2.5 0 0 0-2.5 2.5c0 1.4 1.1 2.5 2.5 2.5 1.3 0 2.5-1.1 2.5-2.5zm-2.6 1.5c-.9 0-1.5-.7-1.5-1.5 0-.9.7-1.5 1.5-1.5.9 0 1.5.7 1.5 1.5.1.8-.6 1.5-1.5 1.5zm-92.7-8a3 3 0 0 0-3 3 3 3 0 0 0 3 3 3 3 0 0 0 3-3 3 3 0 0 0-3-3zm0 4.9a2 2 0 0 1-2-2c0-1.1.9-2 2-2a2 2 0 0 1 2 2 2 2 0 0 1-2 2zm102.8-64.1a3 3 0 0 0 3-3 3 3 0 0 0-3-3 3 3 0 0 0-3 3 3 3 0 0 0 3 3zm0-4.9a2 2 0 0 1 2 2 2 2 0 0 1-2 2 2 2 0 0 1-2-2c0-1.1.9-2 2-2zm-53.1 31.5-2.7-.5 1.6-9.2c.1-.8-.3-1.5-1-2l-5.9-4.4c-1-.7-2.4-1-3.6-.6l-7.1 2.1c-.8.2-1.5.8-1.6 1.6l-1.6 9.2-2.7-.5c-.3 0-.5.1-.6.4 0 .3.1.5.4.6l24.5 4.4c.3 0 .5-.1.6-.4.2-.4 0-.6-.3-.7zm-19.2-12.9c.1-.3.3-.6.9-.8l7.1-2.1c.9-.3 2-.1 2.7.5l5.9 4.4c.5.4.6.8.6 1.1l-1.6 9.2-5.5-1 .6-3.2c.1-.7-.4-1.5-1.1-1.6l-3.5-.6c-.7-.1-1.5.4-1.6 1.1l-.6 3.2-5.5-1 1.6-9.2zm4.9 10.3.6-3.2c0-.2.2-.3.4-.3l3.5.6c.2 0 .3.2.3.4l-.6 3.2-4.2-.7zM266.7.7l-.9-.7h-1.7l2.6 1.9zM258.7 6.3c0 2.1 1.7 3.8 3.8 3.8 1.6 0 2.9-1 3.5-2.4l.7.5V7l-.5-.3v-.4c0-2.1-1.7-3.8-3.8-3.8-.5 0-1 .1-1.4.3L257.3 0h-1.7l4.4 3.3a4 4 0 0 0-1.3 3zm6.5 0c0 1.5-1.2 2.8-2.8 2.8s-2.8-1.2-2.8-2.8c0-1.5 1.2-2.8 2.8-2.8s2.8 1.2 2.8 2.8zm-4.3 105.1-1.3 1.7-6.1-4.6a5.8 5.8 0 0 0-8.1 1.2l-.5.7-3.5 4.7-1.7 2.3c-.9 1.2-.6 2.9.5 3.8l1.7 1.3-.7.7v.1c-1.2 1.7-.9 4 .8 5.2 1.7 1.3 4 .9 5.3-.8l.5-.8 8.2 6.1h1.7l-9.6-7.2c.1-1.3-.4-2.6-1.5-3.4a4 4 0 0 0-3.7-.5l-2-1.5c-.8-.6-.9-1.6-.3-2.4l1.4-1.9 22.5 16.8h1.7l-12.8-9.5 7-9.3 1.6-2.1a2.4 2.4 0 0 1 3.4-.5l1.5 1.1v-1.2l-.9-.7c-1.8-1.1-3.9-.8-5.1.7zm-15.1 11.8c.9.7 1.3 1.7 1.1 2.7-.1.4-.2.8-.5 1.1a2.8 2.8 0 0 1-3.9.6 2.8 2.8 0 0 1-.6-3.9l.9-.8c.9-.4 2.1-.3 3 .3zm7.1-13.8 1.4 1.1-3.5 4-4.9-3.7.3-.4a4.7 4.7 0 0 1 6.7-1zm-7.6 2.1 5.3 4c.2.2.5.1.7-.1l3.8-4.4 3.9 2.9-6.7 8.9-10-7.5 3-3.8zm-23.6-43.6c-.1-.2-.2-.3-.4-.3l-15-.8-.4.2-8.2 12.6v.5l6.8 13.4c.1.2.2.3.4.3l15 .8h.2l.2-.2 8.2-12.6v-.5l-6.8-13.4zm-8.8 12.4-6.4-.3 7.1-11.8 6.9.4-7.6 11.7zm-6.3-12.5 5.9.3-7.1 11.7v.1l-6.5-.3 7.7-11.8zM199 80.6l6.7.4 2.4 4.8c.1.2.4.3.7.2.2-.1.3-.4.2-.7l-2.2-4.3 6 .3 6.2 12.2-13.9-.7-6.1-12.2zm21 12.5-6.2-12.2 7.6-11.6 6.2 12.2-7.6 11.6zm-20.4 20.5L180.4 128c-1.6 1.2-2.2 3.2-1.6 5h1.1a3.6 3.6 0 0 1 1.1-4.2l19.2-14.4a3.5 3.5 0 0 1 5 .7l13.4 17.9h1.2L206 114.5a4.6 4.6 0 0 0-6.4-.9z"/><path fill="#EEF" d="M189.8 129.7a3.5 3.5 0 0 0-3.5 3.4h1a2.5 2.5 0 0 1 2.5-2.4c1.3 0 2.4 1 2.5 2.4h1a3.5 3.5 0 0 0-3.5-3.4zm14.2-7.8-4.2 3.2c-.2.2-.3.5-.1.7.2.2.5.3.7.1l4.2-3.2c.2-.2.3-.5.1-.7a.6.6 0 0 0-.7-.1zm3.5 7.7-4.6 3.5h1.7l3.6-2.7c.4-.3.9-.2 1.2.2l1.9 2.5h1.2l-2.3-3.1a2 2 0 0 0-2.7-.4zM197.4 24.2c1.5 2 4.4 2.4 6.4.9L223 10.8c2-1.5 2.4-4.4.9-6.4L220.6 0h-1.2l3.7 5c1.2 1.6.9 3.8-.7 5l-19.2 14.4a3.5 3.5 0 0 1-5-.7L180.5 0h-1.2l.2.3 17.9 23.9z"/><path fill="#EEF" d="M189.8 2.5c1.6 0 2.9-1.1 3.3-2.5h-1c-.4.9-1.3 1.5-2.3 1.5s-1.9-.6-2.3-1.5h-1a3.3 3.3 0 0 0 3.3 2.5zm24.3 7.9 4.2-3.2c.2-.2.3-.5.1-.7-.2-.2-.5-.3-.7-.1l-4.2 3.2c-.2.2-.3.5-.1.7.2.2.5.3.7.1zm-21-1.9 4.5 6c.6.8 1.8 1 2.6.4l14-10.5c.8-.6 1-1.8.4-2.6L213.2 0H212l1.9 2.5c.3.4.2.9-.2 1.2l-14 10.5c-.4.3-.9.2-1.2-.2L194 8c-.3-.4-.2-.9.2-1.2l9-6.7h-1.7L193.6 6c-.9.5-1.1 1.7-.5 2.5zm69.2 44-12.4 5.2a3.4 3.4 0 0 0-1.8 4.4l5.2 12.4a3.4 3.4 0 0 0 4.4 1.8l8.9-3.7v-1.1l-9.3 3.9c-1.2.5-2.6-.1-3.1-1.3L249 61.8c-.5-1.2.1-2.6 1.3-3.1l12.4-5.2c1.2-.5 2.6.1 3.1 1.3l.8 1.9v-2.5c-.7-1.6-2.6-2.3-4.3-1.7zM254 80.9c.1.3.4.4.7.3l12-5v-1.1l-12.3 5.2c-.3.1-.5.3-.4.6z"/><path fill="#EEF" d="m260.1 57.3-5.3 2.2c-.3.1-.4.4-.3.7.1.3.4.4.7.3l5.3-2.2c.3-.1.4-.4.3-.7s-.4-.5-.7-.3zM124.7 76.4l12.4-5.2a3.4 3.4 0 0 0 1.8-4.4l-5.2-12.4a3.4 3.4 0 0 0-4.4-1.8l-12.4 5.2a3.4 3.4 0 0 0-1.8 4.4l5.2 12.4a3.2 3.2 0 0 0 4.4 1.8zM116 61.8c-.5-1.2.1-2.6 1.3-3.1l12.4-5.2c1.2-.5 2.6.1 3.1 1.3l5.2 12.4c.5 1.2-.1 2.6-1.3 3.1l-12.4 5.2c-1.2.5-2.6-.1-3.1-1.3L116 61.8z"/><path fill="#EEF" d="M145 74.4a3.3 3.3 0 0 0 1.8-4.5v-.1a3.4 3.4 0 0 0-3.9-1.9l-7.1-17.1c-.6-1.4-.6-3 0-4.4l2.1-5.2c.1-.3 0-.5-.3-.7-.3-.1-.5 0-.7.3l-2.1 5.2a6.5 6.5 0 0 0 0 5.1l7.1 17a3.3 3.3 0 0 0-1.5 4l-19.1 8c-.3.1-.4.4-.3.7.1.3.4.4.7.3l19.2-8a3.4 3.4 0 0 0 4.1 1.3zm-2.2-5.5c1.3-.5 2.7.1 3.2 1.3v.1c.5 1.2-.1 2.6-1.3 3.1s-2.5 0-3.1-1.1l-.1-.2c-.6-1.2 0-2.6 1.3-3.2zm-20.6-8.5 5.3-2.2c.3-.1.4-.4.3-.7s-.4-.4-.7-.3l-5.3 2.2c-.3.1-.4.4-.3.7.2.3.4.4.7.3zm46.1 37a8.3 8.3 0 1 0 0 16.6c4.6 0 8.3-3.7 8.3-8.3a8.2 8.2 0 0 0-8.3-8.3zm0 15.6c-4 0-7.3-3.3-7.3-7.3s3.3-7.3 7.3-7.3 7.3 3.3 7.3 7.3c.1 4-3.2 7.3-7.3 7.3z"/><path fill="#EEF" d="m170.7 102.7-3.1 4.6-1.3-1.8c-.2-.2-.5-.3-.7-.1-.2.2-.3.5-.1.7l1.8 2.4.4.2.4-.2 3.5-5.2c.2-.2.1-.5-.1-.7-.3-.2-.6-.1-.8.1zm-45-96.4c0 2.1 1.7 3.8 3.8 3.8 1.6 0 2.9-1 3.5-2.4l1.9 1.4c1.1.8 2.6.6 3.4-.5l.7-.9c.7-.9.6-2 0-2.9l3.6-4.8h-1.2l-3.1 4.1-5.5-4.1h-1.7l6.8 5c.6.5.8 1.4.3 2l-.8 1c-.5.6-1.4.8-2 .3l-2.2-1.7v-.4c0-2.1-1.7-3.8-3.8-3.8-.5 0-1 .1-1.4.3L124.3 0h-1.7l4.4 3.3a4 4 0 0 0-1.3 3zm6.5 0c0 1.5-1.2 2.8-2.8 2.8s-2.8-1.2-2.8-2.8c0-1.5 1.2-2.8 2.8-2.8s2.8 1.2 2.8 2.8z"/></svg>